<mxfile host="app.diagrams.net" modified="2023-08-23T04:36:26.937Z" agent="Mozilla/5.0 (Windows NT 10.0; Win64; x64; rv:109.0) Gecko/20100101 Firefox/116.0" etag="Y8POZeOPE_RLOe-nxrbh" version="21.6.9" type="github">
  <diagram name="第 1 页" id="4CF23f6XX_b41YB8ozRu">
    <mxGraphModel dx="1818" dy="939" grid="1" gridSize="10" guides="1" tooltips="1" connect="1" arrows="1" fold="1" page="1" pageScale="1" pageWidth="827" pageHeight="1169" math="0" shadow="0">
      <root>
        <mxCell id="0" />
        <mxCell id="1" parent="0" />
        <mxCell id="7jx5U1DF9f_Hy3JsZGul-3" style="edgeStyle=orthogonalEdgeStyle;rounded=0;orthogonalLoop=1;jettySize=auto;html=1;entryX=0.25;entryY=0;entryDx=0;entryDy=0;strokeColor=#FF6392;fontColor=#5AA9E6;fillColor=#FFE45E;" parent="1" source="7jx5U1DF9f_Hy3JsZGul-1" target="7jx5U1DF9f_Hy3JsZGul-2" edge="1">
          <mxGeometry relative="1" as="geometry" />
        </mxCell>
        <mxCell id="7jx5U1DF9f_Hy3JsZGul-1" value="" style="ellipse;whiteSpace=wrap;html=1;aspect=fixed;labelBackgroundColor=none;fillColor=#FFE45E;strokeColor=#FF6392;fontColor=#5AA9E6;" parent="1" vertex="1">
          <mxGeometry x="300" y="240" width="60" height="60" as="geometry" />
        </mxCell>
        <mxCell id="7jx5U1DF9f_Hy3JsZGul-2" value="" style="shape=process;whiteSpace=wrap;html=1;backgroundOutline=1;strokeColor=#FF6392;fontColor=#5AA9E6;fillColor=#FFE45E;" parent="1" vertex="1">
          <mxGeometry x="220" y="430" width="120" height="60" as="geometry" />
        </mxCell>
      </root>
    </mxGraphModel>
  </diagram>
</mxfile>
